%FSLAX34Y34*%
%MOMM*%
%ADD10C,1.3000*%
%ADD11R,2.0000X1.4000*%
%ADD12C,1.8000*%
%ADD13R,1.3000X1.3000*%
%ADD14C,2.6000*%
%ADD15R,1.4000X1.4000*%
%ADD16C,0.4000*%
%ADD17C,0.8000*%
%ADD18C,0.2000*%
%LPD*%
D10*
X250000Y60000D03*
D10*
X250000Y85400D03*
D10*
X250000Y110800D03*
D10*
X250000Y136200D03*
D10*
X250000Y161600D03*
D10*
X250000Y187000D03*
D10*
X250000Y212400D03*
D10*
X250000Y237800D03*
D10*
X250000Y263200D03*
D10*
X402400Y60000D03*
D10*
X402400Y85400D03*
D10*
X402400Y110800D03*
D10*
X402400Y136200D03*
D10*
X402400Y161600D03*
D10*
X402400Y187000D03*
D10*
X402400Y212400D03*
D10*
X402400Y237800D03*
D10*
X402400Y263200D03*
D10*
X80000Y260000D03*
D10*
X105400Y260000D03*
D10*
X130800Y260000D03*
D10*
X80000Y190000D03*
D10*
X105400Y190000D03*
D10*
X130800Y190000D03*
D10*
X120000Y490000D03*
D10*
X145400Y490000D03*
D10*
X170800Y490000D03*
D10*
X196200Y490000D03*
D10*
X221600Y490000D03*
D11*
X280000Y440000D03*
D11*
X280000Y420000D03*
D11*
X280000Y400000D03*
D11*
X280000Y380000D03*
D11*
X280000Y360000D03*
D11*
X280000Y340000D03*
D11*
X280000Y320000D03*
D11*
X280000Y300000D03*
D11*
X440000Y440000D03*
D11*
X440000Y420000D03*
D11*
X440000Y400000D03*
D11*
X440000Y380000D03*
D11*
X440000Y360000D03*
D11*
X440000Y340000D03*
D11*
X440000Y320000D03*
D11*
X440000Y300000D03*
D12*
X110000Y90000D03*
D12*
X135400Y90000D03*
D12*
X160800Y90000D03*
D13*
X135400Y50000D03*
D13*
X115400Y50000D03*
D13*
X160800Y50000D03*
D13*
X180800Y50000D03*
D14*
X80000Y22000D03*
D14*
X165000Y22000D03*
D15*
X195000Y98100D03*
D15*
X215000Y98100D03*
D13*
X462000Y420000D03*
D13*
X480000Y420000D03*
D14*
X500000Y180000D03*
D14*
X500000Y145000D03*
D16*
X402400Y237800D02*
X450000Y237800D01*
X450000Y285000D01*
X260000Y285000D01*
X260000Y300000D01*
X280000Y300000D01*
D16*
X250000Y136200D02*
X210000Y136200D01*
X210000Y470000D01*
X221600Y490000D01*
D17*
X160800Y90000D02*
X160800Y140000D01*
X50000Y140000D01*
X50000Y470000D01*
X120000Y490000D01*
D16*
X50000Y240000D02*
X105400Y260000D01*
D17*
X160800Y90000D02*
X160800Y98100D01*
X195000Y98100D01*
D18*
X215000Y98100D02*
X402400Y98100D01*
X402400Y110800D01*
D16*
X435000Y98100D02*
X435000Y420000D01*
X440000Y420000D01*
D17*
X80000Y22000D02*
X135400Y22000D01*
X135400Y90000D01*
M02*