M48
METRIC,TZ
T01C0.600
T02C0.800
T03C1.000
T04C3.200
%
T01
X46.000Y40.000
T02
X25.000Y6.000
X25.000Y8.540
X25.000Y11.080
X25.000Y13.620
X25.000Y16.160
X25.000Y18.700
X25.000Y21.240
X25.000Y23.780
X25.000Y26.320
X40.240Y6.000
X40.240Y8.540
X40.240Y11.080
X40.240Y13.620
X40.240Y16.160
X40.240Y18.700
X40.240Y21.240
X40.240Y23.780
X40.240Y26.320
X8.000Y26.000
X10.540Y26.000
X13.080Y26.000
X8.000Y19.000
X10.540Y19.000
X13.080Y19.000
X12.000Y49.000
X14.540Y49.000
X17.080Y49.000
X19.620Y49.000
X22.160Y49.000
T03
X11.000Y9.000
X13.540Y9.000
X16.080Y9.000
X8.000Y2.200
X16.500Y2.200
X50.000Y18.000
X50.000Y14.500
T04
X4.000Y4.000
X52.000Y4.000
X4.000Y49.000
X52.000Y49.000
M30